<svg xmlns="http://www.w3.org/2000/svg" xmlns:xlink="http://www.w3.org/1999/xlink" viewBox="0,0,256,256" width="30px" height="30px" fill-rule="nonzero"><g fill="#f4f4f4" fill-rule="nonzero" stroke="none" stroke-width="1" stroke-linecap="butt" stroke-linejoin="miter" stroke-miterlimit="10" stroke-dasharray="" stroke-dashoffset="0" font-family="none" font-weight="none" font-size="none" text-anchor="none" style="mix-blend-mode: normal"><g transform="scale(8.53333,8.53333)"><path d="M5,3c-1.09306,0 -2,0.90694 -2,2v11c0,1.09306 0.90694,2 2,2h2h5v4h-4v-3l-1,-1l-1,1v3l2,2h4v1c0,1.105 0.895,2 2,2h11c1.105,0 2,-0.895 2,-2v-11c0,-1.105 -0.895,-2 -2,-2h-7v-7c0,-1.09306 -0.90694,-2 -2,-2zM5,5h11v7h-2c-1.105,0 -2,0.895 -2,2v2h-7zM12,14v-1c-0.24471,0 -0.47865,-0.03023 -0.70898,-0.06641c0.02386,-0.01734 0.05076,-0.031 0.07422,-0.04883c1.07118,-0.8141 1.63477,-2.13376 1.63477,-3.88477h1v-1h-3v-1.5h-1v1.5h-3v1h5c0,1.54899 -0.43642,2.47894 -1.24023,3.08984c-0.21979,0.16704 -0.48168,0.30704 -0.76953,0.42773c-0.32288,-0.15968 -0.62614,-0.34044 -0.88086,-0.55469c-0.71708,-0.60316 -1.10937,-1.37114 -1.10937,-1.96289h-1c0,0.99725 0.57367,1.97892 1.46484,2.72852c0.05901,0.04963 0.13138,0.08917 0.19336,0.13672c-0.50144,0.08013 -1.04113,0.13477 -1.6582,0.13477v1c1.11532,0 2.10812,-0.11533 2.95703,-0.39453c0.61882,0.24454 1.30495,0.39453 2.04297,0.39453zM18.40234,15.97656h2.19141l2.36914,7.04688h-1.95312l-0.43945,-1.54883h-2.30078l-0.45312,1.54883h-1.77734zM19.38281,17.56445l-0.77148,2.62109h1.62109l-0.75586,-2.62109z"></path></g></g></svg>